<?xml version="1.0" encoding="iso-8859-1"?>
<!-- Generator: Adobe Illustrator 19.0.0, SVG Export Plug-In . SVG Version: 6.00 Build 0)  -->
<svg version="1.1" id="Capa_1" xmlns="http://www.w3.org/2000/svg" xmlns:xlink="http://www.w3.org/1999/xlink" x="0px" y="0px"
	 viewBox="0 0 512 512" style="enable-background:new 0 0 512 512;" xml:space="preserve">
<rect x="7.5" y="63.34" style="fill:#47F8FE;" width="316.36" height="215.61"/>
<rect x="165.68" y="63.34" style="fill:#00B6BC;" width="158.18" height="215.61"/>
<g>
	<rect x="7.5" y="237.44" style="fill:#898890;" width="316.36" height="41.51"/>
	<rect x="132.86" y="278.94" style="fill:#898890;" width="65.63" height="82.83"/>
</g>
<polygon style="fill:#57565C;" points="323.86,237.435 323.86,278.945 198.49,278.945 198.49,361.775 165.68,361.775 
	165.68,237.435 "/>
<rect x="358.29" y="63.34" style="fill:#898890;" width="146.21" height="298.44"/>
<rect x="431.39" y="64.33" style="fill:#57565C;" width="69.52" height="298.44"/>
<g>
	<rect x="386.87" y="97.78" style="fill:#C6C5CB;" width="89.05" height="33.79"/>
	<rect x="386.87" y="163.22" style="fill:#C6C5CB;" width="89.05" height="33.8"/>
</g>
<g>
	<rect x="431.4" y="97.78" style="fill:#898890;" width="44.52" height="33.79"/>
	<rect x="431.4" y="163.22" style="fill:#898890;" width="44.52" height="33.8"/>
</g>
<path style="fill:#FED322;" d="M468.14,286.865c0,20.29-16.44,36.73-36.74,36.74h-0.01c-20.29,0-36.74-16.45-36.74-36.74
	c0-20.3,16.45-36.75,36.74-36.75h0.01C451.7,250.125,468.14,266.565,468.14,286.865z"/>
<path style="fill:#FF9911;" d="M468.14,286.865c0,20.29-16.44,36.73-36.74,36.74v-73.49
	C451.7,250.125,468.14,266.565,468.14,286.865z"/>
<rect x="7.5" y="415.6" style="fill:#57565C;" width="316.36" height="32.35"/>
<rect x="165.68" y="415.6" style="fill:#3E3D43;" width="158.18" height="32.35"/>
<path style="fill:#C6C5CB;" d="M480.05,448.664h-97.312v-9.762c0-26.872,21.784-48.656,48.656-48.656l0,0
	c16.185,0,30.524,7.902,39.369,20.059c5.841,8.027,9.286,17.91,9.286,28.597v9.762H480.05z"/>
<path style="fill:#020202;" d="M0,229.939v56.504h125.364v67.835H63.222v15h62.143h80.629h62.143v-15h-62.143v-67.835h125.363
	v-56.504V55.836H0V229.939z M190.993,354.277h-50.629v-67.835h50.629V354.277z M316.356,271.442H205.993h-80.629H15v-26.504h301.356
	V271.442z M316.356,70.836v159.103H15V70.836H316.356z"/>
<g>
	<polygon style="fill:#FFFFFF;" points="291.356,137.64 306.356,137.64 306.356,80.836 267.502,80.836 267.502,95.836 
		291.356,95.836 	"/>
	<rect x="291.36" y="154.3" style="fill:#FFFFFF;" width="15" height="16.66"/>
	<polygon style="fill:#FFFFFF;" points="40,95.836 91.169,95.836 91.169,80.836 25,80.836 25,121.47 40,121.47 	"/>
	<rect x="108.26" y="80.84" style="fill:#FFFFFF;" width="17.15" height="15"/>
	
		<rect x="66.855" y="137.189" transform="matrix(0.7071 -0.7071 0.7071 0.7071 -69.7809 120.9128)" style="fill:#FFFFFF;" width="88.419" height="15"/>
	
		<rect x="212.794" y="100.471" transform="matrix(-0.7071 -0.7071 0.7071 -0.7071 273.7607 402.7559)" style="fill:#FFFFFF;" width="15" height="88.419"/>
</g>
<g>
	<path style="fill:#020202;" d="M350.788,55.836v313.441H512V55.836H350.788z M497,354.277H365.788V70.836H497V354.277z"/>
	<path style="fill:#020202;" d="M483.417,90.271H379.371v48.795h104.046V90.271z M468.417,124.066h-74.046v-18.795h74.046V124.066z"
		/>
	<path style="fill:#020202;" d="M483.417,155.716H379.371v48.794h104.046V155.716z M468.417,189.51h-74.046v-18.794h74.046V189.51z"
		/>
	<path style="fill:#020202;" d="M431.394,242.616c-24.396,0-44.244,19.849-44.244,44.245c0,24.397,19.848,44.244,44.244,44.244
		s44.245-19.848,44.245-44.244S455.79,242.616,431.394,242.616z M431.394,316.105c-16.125,0-29.244-13.119-29.244-29.244
		c0-16.126,13.119-29.245,29.244-29.245c16.126,0,29.245,13.119,29.245,29.245C460.639,302.986,447.52,316.105,431.394,316.105z"/>
	<path style="fill:#020202;" d="M0,455.447h331.356v-47.353H0V455.447z M15,423.095h301.356v17.353H15V423.095z"/>
	<path style="fill:#020202;" d="M431.394,382.747c-30.964,0-56.155,25.191-56.155,56.155v17.262H487.55v-17.262
		c0-11.955-3.707-23.369-10.722-33.01C466.282,391.399,449.297,382.747,431.394,382.747z M472.55,441.164h-82.311v-2.262
		c0-20.131,14.533-36.921,33.655-40.458v21.011h15v-21.007c10.256,1.916,19.567,7.697,25.806,16.27
		c5.136,7.059,7.851,15.421,7.851,24.184v2.262H472.55z"/>
</g>
<g>
</g>
<g>
</g>
<g>
</g>
<g>
</g>
<g>
</g>
<g>
</g>
<g>
</g>
<g>
</g>
<g>
</g>
<g>
</g>
<g>
</g>
<g>
</g>
<g>
</g>
<g>
</g>
<g>
</g>
</svg>
