<svg height="512" viewBox="0 0 58 59" width="512" xmlns="http://www.w3.org/2000/svg"><g id="Page-1" fill="none" fill-rule="evenodd"><g id="007---Remove-Note"><path id="Path" d="m46 9v24.05l-2.94 25.8c-.3442529.1008464-.7012825.1513695-1.06.15h-38c-2.209139 0-4-1.790861-4-4v-46c0-2.209139 1.790861-4 4-4h38c2.209139 0 4 1.790861 4 4z" fill="#9fc9d3"/><circle id="Oval" cx="18" cy="10" fill="#4482c3" r="2"/><circle id="Oval" cx="8" cy="10" fill="#4482c3" r="2"/><circle id="Oval" cx="38" cy="10" fill="#4482c3" r="2"/><circle id="Oval" cx="28" cy="10" fill="#4482c3" r="2"/><path id="Path" d="m8 10c-.55228475 0-1-.44771525-1-1v-8c0-.55228475.44771525-1 1-1s1 .44771525 1 1v8c0 .55228475-.44771525 1-1 1z" fill="#ecf0f1"/><path id="Path" d="m18 10c-.5522847 0-1-.44771525-1-1v-8c0-.55228475.4477153-1 1-1s1 .44771525 1 1v8c0 .55228475-.4477153 1-1 1z" fill="#ecf0f1"/><path id="Path" d="m28 10c-.5522847 0-1-.44771525-1-1v-8c0-.55228475.4477153-1 1-1s1 .44771525 1 1v8c0 .55228475-.4477153 1-1 1z" fill="#ecf0f1"/><path id="Path" d="m38 10c-.5522847 0-1-.44771525-1-1v-8c0-.55228475.4477153-1 1-1s1 .44771525 1 1v8c0 .55228475-.4477153 1-1 1z" fill="#ecf0f1"/><g fill="#84b5cb"><path id="Path" d="m6 17h-1c-.55228475 0-1-.4477153-1-1s.44771525-1 1-1h1c.55228475 0 1 .4477153 1 1s-.44771525 1-1 1z"/><path id="Path" d="m2 16c0 .5522847-.44771525 1-1 1h-1v-2h1c.55228475 0 1 .4477153 1 1z"/><path id="Path" d="m11 17h-1c-.55228475 0-1-.4477153-1-1s.44771525-1 1-1h1c.5522847 0 1 .4477153 1 1s-.4477153 1-1 1z"/><path id="Path" d="m16 17h-1c-.5522847 0-1-.4477153-1-1s.4477153-1 1-1h1c.5522847 0 1 .4477153 1 1s-.4477153 1-1 1z"/><path id="Path" d="m21 17h-1c-.5522847 0-1-.4477153-1-1s.4477153-1 1-1h1c.5522847 0 1 .4477153 1 1s-.4477153 1-1 1z"/><path id="Path" d="m26 17h-1c-.5522847 0-1-.4477153-1-1s.4477153-1 1-1h1c.5522847 0 1 .4477153 1 1s-.4477153 1-1 1z"/><path id="Path" d="m31 17h-1c-.5522847 0-1-.4477153-1-1s.4477153-1 1-1h1c.5522847 0 1 .4477153 1 1s-.4477153 1-1 1z"/><path id="Path" d="m36 17h-1c-.5522847 0-1-.4477153-1-1s.4477153-1 1-1h1c.5522847 0 1 .4477153 1 1s-.4477153 1-1 1z"/><path id="Path" d="m41 17h-1c-.5522847 0-1-.4477153-1-1s.4477153-1 1-1h1c.5522847 0 1 .4477153 1 1s-.4477153 1-1 1z"/><path id="Path" d="m46 15v2h-1c-.5522847 0-1-.4477153-1-1s.4477153-1 1-1z"/></g><circle id="Oval" cx="45" cy="46" fill="#e64c3c" r="13"/><path id="Path" d="m50 44h-10c-1.1045695 0-2 .8954305-2 2s.8954305 2 2 2h10c1.1045695 0 2-.8954305 2-2s-.8954305-2-2-2z" fill="#ecf0f1"/></g></g></svg>