<?xml version="1.0" encoding="iso-8859-1"?>
<!-- Generator: Adobe Illustrator 19.0.0, SVG Export Plug-In . SVG Version: 6.00 Build 0)  -->
<svg version="1.1" id="Capa_1" xmlns="http://www.w3.org/2000/svg" xmlns:xlink="http://www.w3.org/1999/xlink" x="0px" y="0px"
	 viewBox="0 0 512 512" style="enable-background:new 0 0 512 512;" xml:space="preserve">
<g>
	<path style="fill:#FFF9E1;" d="M327.68,400.871c1.306-2.031,2.56-4.096,3.644-6.212
		C330.146,396.783,328.943,398.866,327.68,400.871z"/>
	<path style="fill:#FFF9E1;" d="M332.228,392.935c1.143-2.287,2.15-4.625,3.081-6.997
		C334.37,388.318,333.372,390.674,332.228,392.935z"/>
	<path style="fill:#FFF9E1;" d="M279.194,436.685c0.853-0.239,1.664-0.478,2.492-0.742
		C280.858,436.207,280.03,436.446,279.194,436.685z"/>
	<path style="fill:#FFF9E1;" d="M290.987,432.393c1.425-0.64,2.833-1.314,4.267-2.039
		C293.82,431.079,292.412,431.744,290.987,432.393z"/>
	<path style="fill:#FFF9E1;" d="M296.619,429.594c1.63-0.853,3.226-1.809,4.804-2.799
		C299.861,427.785,298.249,428.707,296.619,429.594z"/>
	<path style="fill:#FFF9E1;" d="M336.768,381.867c0.401-1.186,0.759-2.381,1.101-3.584
		C337.519,379.486,337.169,380.69,336.768,381.867z"/>
	<path style="fill:#FFF9E1;" d="M326.554,402.509c-3.447,5.086-7.432,9.779-11.887,14.003
		C319.13,412.288,323.115,407.595,326.554,402.509z"/>
	<path style="fill:#FFF9E1;" d="M314.522,416.649c-2.321,2.193-4.77,4.25-7.322,6.161c-1.707,1.263-3.413,2.449-5.12,3.584
		c3.072-1.946,6.007-4.079,8.806-6.4C312.132,418.927,313.318,417.775,314.522,416.649z"/>
</g>
<path style="fill:#FEE9AB;" d="M8.533,13.295v341.333h162.133c0-47.13,38.204-85.333,85.333-85.333s85.333,38.204,85.333,85.333
	h162.133V13.295L8.533,13.295L8.533,13.295z"/>
<g>
	<path style="fill:#FFF9E1;" d="M285.167,434.757c1.143-0.418,2.287-0.853,3.413-1.331
		C287.462,433.903,286.319,434.339,285.167,434.757z"/>
	<path style="fill:#FFF9E1;" d="M180.719,394.659c1.118,2.116,2.338,4.181,3.644,6.212
		C183.057,398.866,181.854,396.783,180.719,394.659z"/>
	<path style="fill:#FFF9E1;" d="M176.691,385.938c0.93,2.372,1.937,4.71,3.081,6.997
		C178.628,390.674,177.63,388.318,176.691,385.938z"/>
	<path style="fill:#FFF9E1;" d="M273.067,438.17c0.529-0.102,1.05-0.213,1.579-0.333
		C274.125,437.957,273.596,438.059,273.067,438.17z"/>
	<path style="fill:#FFF9E1;" d="M210.577,426.795c1.579,0.99,3.174,1.92,4.804,2.799
		C213.751,428.707,212.139,427.785,210.577,426.795z"/>
	<path style="fill:#FFF9E1;" d="M174.131,378.283c0.341,1.203,0.7,2.398,1.101,3.584
		C174.831,380.69,174.481,379.486,174.131,378.283z"/>
	<path style="fill:#FFF9E1;" d="M216.798,430.354c1.391,0.725,2.799,1.399,4.267,2.039
		C219.588,431.744,218.18,431.079,216.798,430.354z"/>
	<path style="fill:#FFF9E1;" d="M197.333,416.512c-4.454-4.224-8.439-8.917-11.887-14.003
		C188.885,407.595,192.87,412.288,197.333,416.512z"/>
	<path style="fill:#FFF9E1;" d="M209.92,426.394c-1.758-1.135-3.482-2.321-5.12-3.584c-2.551-1.911-5.001-3.968-7.322-6.161
		c1.203,1.135,2.389,2.278,3.669,3.345C203.938,422.315,206.865,424.448,209.92,426.394z"/>
	<path style="fill:#FFF9E1;" d="M266.854,439.203l0.742-0.094L266.854,439.203z"/>
	<path style="fill:#FFF9E1;" d="M223.411,433.426c1.135,0.469,2.278,0.913,3.413,1.331
		C225.681,434.339,224.538,433.903,223.411,433.426z"/>
	<path style="fill:#FFF9E1;" d="M230.315,435.943c0.853,0.264,1.655,0.503,2.492,0.742
		C231.97,436.446,231.142,436.207,230.315,435.943z"/>
	<path style="fill:#FFF9E1;" d="M237.355,437.837c0.529,0.119,1.05,0.23,1.579,0.333
		C238.404,438.059,237.875,437.957,237.355,437.837z"/>
	<path style="fill:#FFF9E1;" d="M244.403,439.109l0.742,0.094L244.403,439.109z"/>
</g>
<path style="fill:#F7E06F;" d="M256,269.295c-47.07-0.06-85.274,38.042-85.333,85.111c-0.009,6.588,0.751,13.158,2.253,19.575l0,0
	c0.333,1.459,0.768,2.893,1.178,4.335c0.35,1.203,0.7,2.406,1.101,3.584c0.452,1.365,0.93,2.731,1.459,4.07
	c0.939,2.381,1.937,4.736,3.081,6.997c0.29,0.589,0.64,1.143,0.947,1.707c1.135,2.125,2.338,4.207,3.644,6.212
	c0.35,0.555,0.717,1.101,1.084,1.638c3.447,5.086,7.433,9.779,11.887,14.003l0.145,0.137c2.33,2.185,4.787,4.241,7.356,6.144
	c1.707,1.263,3.413,2.449,5.12,3.584c0.213,0.128,0.418,0.264,0.623,0.401c1.562,0.99,3.174,1.911,4.804,2.799
	c0.469,0.256,0.939,0.521,1.417,0.759c1.382,0.725,2.79,1.391,4.267,2.039c0.794,0.358,1.587,0.708,2.389,1.033
	c1.126,0.478,2.27,0.913,3.413,1.331c1.143,0.418,2.321,0.853,3.482,1.186c0.853,0.265,1.655,0.503,2.492,0.742
	c1.51,0.418,3.029,0.853,4.548,1.152c0.521,0.119,1.05,0.222,1.579,0.333c1.818,0.367,3.644,0.691,5.47,0.939l0.742,0.094
	c2.082,0.256,4.164,0.461,6.246,0.563l0,0c1.536,0.077,3.055,0.188,4.608,0.188c1.553,0,3.072-0.111,4.608-0.188l0,0
	c2.082-0.102,4.164-0.307,6.246-0.563l0.742-0.094c1.826-0.247,3.652-0.572,5.47-0.939c0.529-0.111,1.058-0.213,1.579-0.333
	c1.519-0.333,3.038-0.734,4.548-1.152c0.853-0.239,1.664-0.478,2.492-0.742c1.161-0.367,2.321-0.768,3.482-1.186
	c1.161-0.418,2.296-0.853,3.413-1.331c0.802-0.324,1.596-0.674,2.389-1.033c1.434-0.649,2.842-1.314,4.267-2.039
	c0.478-0.239,0.947-0.503,1.417-0.759c1.63-0.853,3.243-1.809,4.804-2.799c0.205-0.137,0.41-0.273,0.623-0.401
	c1.758-1.135,3.482-2.321,5.12-3.584c2.551-1.911,5.001-3.968,7.322-6.161l0.145-0.137c4.454-4.224,8.439-8.917,11.887-14.003
	c0.367-0.538,0.734-1.084,1.084-1.638c1.306-2.005,2.509-4.087,3.644-6.212c0.307-0.58,0.657-1.135,0.947-1.707
	c1.143-2.261,2.142-4.617,3.081-6.997c0.529-1.34,1.007-2.705,1.459-4.07c0.401-1.178,0.751-2.381,1.101-3.584
	c0.41-1.442,0.853-2.876,1.178-4.335l0,0c10.743-45.824-17.698-91.682-63.522-102.426C269.124,270.046,262.571,269.287,256,269.295z
	 M256,405.829c-28.279,0-51.2-22.921-51.2-51.2s22.921-51.2,51.2-51.2c28.279,0,51.2,22.921,51.2,51.2
	C307.174,382.891,284.262,405.803,256,405.829z"/>
<circle style="fill:#FCCA75;" cx="256" cy="354.629" r="51.2"/>
<path style="fill:#DF7059;" d="M244.403,439.109c-1.843-0.256-3.669-0.572-5.47-0.939c-0.529-0.102-1.05-0.213-1.579-0.333
	c-1.527-0.341-3.046-0.725-4.548-1.152c-0.853-0.239-1.707-0.478-2.492-0.742c-1.169-0.367-2.33-0.768-3.482-1.186
	c-1.152-0.418-2.287-0.853-3.413-1.331c-0.853-0.333-1.604-0.674-2.389-1.033c-1.425-0.64-2.833-1.314-4.267-2.039
	c-0.478-0.247-0.947-0.503-1.417-0.759c-1.63-0.853-3.226-1.809-4.804-2.799c-0.205-0.137-0.41-0.273-0.623-0.401
	c-3.072-1.946-6.007-4.079-8.806-6.4c-1.28-1.067-2.466-2.21-3.669-3.345l-0.145-0.137c-4.463-4.224-8.448-8.917-11.887-14.003
	c-0.367-0.538-0.725-1.084-1.084-1.638c-1.306-2.031-2.56-4.096-3.644-6.212c-0.307-0.58-0.649-1.135-0.947-1.707
	c-1.143-2.287-2.15-4.625-3.081-6.997c-0.529-1.34-0.998-2.697-1.459-4.07c-0.401-1.186-0.759-2.381-1.101-3.584
	c-0.41-1.434-0.853-2.842-1.212-4.267l-49.391,58.88l55.706,13.235l22.767,52.514l49.417-58.88
	c-2.099-0.119-4.181-0.307-6.246-0.572L244.403,439.109z"/>
<g>
	<path style="fill:#FFF9E1;" d="M221.013,432.393c0.785,0.358,1.579,0.7,2.389,1.033
		C222.609,433.135,221.815,432.751,221.013,432.393z"/>
	<path style="fill:#FFF9E1;" d="M226.833,434.757c1.152,0.418,2.313,0.853,3.482,1.186
		C229.154,435.576,227.994,435.175,226.833,434.757z"/>
	<path style="fill:#FFF9E1;" d="M232.806,436.685c1.502,0.427,3.021,0.811,4.548,1.152
		C235.836,437.504,234.317,437.103,232.806,436.685z"/>
	<path style="fill:#FFF9E1;" d="M238.933,438.17c1.801,0.367,3.618,0.683,5.47,0.939
		C242.577,438.861,240.751,438.537,238.933,438.17z"/>
	<path style="fill:#FFF9E1;" d="M184.363,400.871c0.358,0.555,0.717,1.101,1.084,1.638
		C185.079,401.972,184.713,401.426,184.363,400.871z"/>
	<path style="fill:#FFF9E1;" d="M209.92,426.394c0.213,0.128,0.418,0.264,0.623,0.401
		C210.372,426.659,210.167,426.522,209.92,426.394z"/>
	<path style="fill:#FFF9E1;" d="M175.232,381.867c0.461,1.374,0.93,2.731,1.459,4.07
		C176.162,384.598,175.684,383.232,175.232,381.867z"/>
	<path style="fill:#FFF9E1;" d="M245.146,439.203c2.065,0.264,4.147,0.452,6.246,0.572l0,0
		C249.31,439.663,247.228,439.459,245.146,439.203z"/>
	<path style="fill:#FFF9E1;" d="M179.772,392.935c0.299,0.589,0.64,1.143,0.947,1.707
		C180.412,394.078,180.053,393.524,179.772,392.935z"/>
	<path style="fill:#FFF9E1;" d="M197.478,416.649l-0.145-0.137L197.478,416.649z"/>
	<path style="fill:#FFF9E1;" d="M172.954,373.948L172.954,373.948c0.341,1.459,0.802,2.867,1.212,4.267
		C173.722,376.815,173.286,375.407,172.954,373.948z"/>
	<path style="fill:#FFF9E1;" d="M215.381,429.594c0.469,0.256,0.939,0.512,1.417,0.759
		C216.32,430.115,215.893,429.85,215.381,429.594z"/>
</g>
<path style="fill:#DF7059;" d="M336.768,381.867c-0.461,1.374-0.93,2.731-1.459,4.07c-0.93,2.372-1.937,4.71-3.081,6.997
	c-0.299,0.589-0.64,1.143-0.947,1.707c-1.118,2.116-2.338,4.181-3.644,6.212c-0.358,0.555-0.717,1.101-1.084,1.638
	c-3.439,5.086-7.424,9.779-11.887,14.003l-0.145,0.137c-1.203,1.135-2.389,2.278-3.669,3.345c-2.799,2.321-5.734,4.454-8.806,6.4
	c-0.213,0.128-0.418,0.264-0.623,0.401c-1.579,0.99-3.174,1.92-4.804,2.799c-0.469,0.256-0.939,0.512-1.417,0.759
	c-1.391,0.725-2.799,1.399-4.267,2.039c-0.785,0.358-1.579,0.7-2.389,1.033c-1.135,0.469-2.278,0.913-3.413,1.331
	c-1.135,0.418-2.313,0.853-3.482,1.186c-0.853,0.264-1.655,0.503-2.492,0.742c-1.502,0.427-3.021,0.811-4.548,1.152
	c-0.529,0.119-1.05,0.23-1.579,0.333c-1.801,0.367-3.618,0.683-5.47,0.939l-0.742,0.094c-2.065,0.264-4.147,0.452-6.246,0.572
	l49.417,58.88l22.81-52.489l55.68-13.303l-49.391-58.88c-0.341,1.459-0.802,2.867-1.212,4.267
	C337.527,379.486,337.169,380.681,336.768,381.867z"/>
<g>
	<path style="fill:#FFF9E1;" d="M326.554,402.509c0.367-0.538,0.725-1.084,1.084-1.638
		C327.287,401.426,326.921,401.972,326.554,402.509z"/>
	<path style="fill:#FFF9E1;" d="M301.423,426.795c0.205-0.137,0.41-0.273,0.623-0.401
		C301.833,426.522,301.628,426.659,301.423,426.795z"/>
	<path style="fill:#FFF9E1;" d="M295.202,430.354c0.478-0.247,0.947-0.503,1.417-0.759
		C296.149,429.85,295.68,430.115,295.202,430.354z"/>
	<path style="fill:#FFF9E1;" d="M335.309,385.938c0.529-1.34,0.998-2.697,1.459-4.07
		C336.316,383.232,335.838,384.598,335.309,385.938z"/>
	<path style="fill:#FFF9E1;" d="M314.667,416.512l-0.145,0.137L314.667,416.512z"/>
	<path style="fill:#FFF9E1;" d="M331.281,394.659c0.307-0.58,0.649-1.135,0.947-1.707
		C331.947,393.524,331.588,394.078,331.281,394.659z"/>
	<path style="fill:#FFF9E1;" d="M288.589,433.426c0.811-0.333,1.604-0.674,2.389-1.033
		C290.185,432.751,289.391,433.135,288.589,433.426z"/>
	<path style="fill:#FFF9E1;" d="M260.608,439.766L260.608,439.766c2.099-0.119,4.181-0.307,6.246-0.572
		C264.772,439.459,262.69,439.663,260.608,439.766z"/>
	<path style="fill:#FFF9E1;" d="M274.645,437.837c1.527-0.341,3.038-0.725,4.548-1.152
		C277.683,437.103,276.164,437.504,274.645,437.837z"/>
	<path style="fill:#FFF9E1;" d="M267.597,439.109c1.843-0.256,3.669-0.572,5.47-0.939
		C271.249,438.537,269.423,438.861,267.597,439.109z"/>
	<path style="fill:#FFF9E1;" d="M337.869,378.283c0.41-1.434,0.853-2.842,1.212-4.267l0,0
		C338.714,375.407,338.278,376.815,337.869,378.283z"/>
	<path style="fill:#FFF9E1;" d="M281.685,435.943c1.169-0.367,2.33-0.768,3.482-1.186
		C284.006,435.175,282.846,435.576,281.685,435.943z"/>
</g>
<g>
	<path style="fill:#231F20;" d="M503.467,4.762H8.533C3.823,4.762,0,8.585,0,13.295v341.333c0,4.71,3.823,8.533,8.533,8.533H162.62
		c0.256,2.842,0.674,5.641,1.178,8.414l-46.805,55.782c-3.029,3.61-2.56,8.994,1.041,12.023c1.015,0.853,2.219,1.459,3.516,1.766
		l51.524,12.305l21.069,48.64c1.869,4.326,6.895,6.315,11.221,4.437c1.22-0.529,2.295-1.331,3.149-2.347l46.729-55.689
		c0.256,0,0.503,0,0.759,0s0.503,0,0.759,0l46.729,55.689c3.029,3.61,8.414,4.087,12.023,1.058c1.015-0.853,1.818-1.929,2.347-3.149
		l21.069-48.64l51.524-12.305c4.582-1.092,7.415-5.692,6.323-10.274c-0.307-1.289-0.913-2.492-1.766-3.516l-46.805-55.782
		c0.503-2.773,0.922-5.572,1.178-8.414h154.086c4.71,0,8.533-3.823,8.533-8.533V13.295C512,8.585,508.177,4.762,503.467,4.762z
		 M179.2,354.629c-0.026-42.419,34.338-76.817,76.757-76.843c42.419-0.026,76.817,34.338,76.843,76.757
		c0,5.743-0.64,11.469-1.911,17.075c-0.043,0.145-0.128,0.273-0.162,0.418c-0.905,3.917-2.116,7.765-3.627,11.494
		c-0.119,0.299-0.256,0.597-0.384,0.853c-1.365,3.234-2.953,6.374-4.762,9.387c-0.282,0.478-0.538,0.981-0.853,1.459
		c-1.946,3.115-4.113,6.093-6.494,8.892c-0.64,0.751-1.365,1.434-2.039,2.167c-1.749,1.903-3.593,3.721-5.521,5.436
		c-1.621,1.442-3.234,2.901-5.001,4.215c-1.766,1.314-3.345,2.423-5.069,3.524l-0.102,0.06c-1.545,0.981-3.123,1.886-4.727,2.739
		c-0.316,0.171-0.623,0.35-0.939,0.512c-1.289,0.674-2.56,1.28-3.917,1.869c-0.683,0.307-1.357,0.623-2.048,0.905
		c-0.956,0.401-1.929,0.751-2.901,1.101c-0.973,0.35-2.176,0.802-3.285,1.143c-0.589,0.188-1.186,0.35-1.783,0.521
		c-1.51,0.427-3.029,0.853-4.565,1.178l-0.683,0.137c-3.917,0.828-7.885,1.348-11.878,1.562h-0.111
		c-1.348,0.068-2.697,0.162-4.053,0.162c-1.357,0-2.705-0.094-4.053-0.162h-0.111c-3.985-0.213-7.945-0.734-11.853-1.553
		l-0.717-0.145c-1.519-0.333-3.021-0.742-4.506-1.169c-0.623-0.179-1.254-0.341-1.869-0.538c-1.067-0.333-2.116-0.725-3.166-1.101
		s-2.048-0.742-3.055-1.161c-0.623-0.265-1.237-0.546-1.852-0.853c-1.399-0.631-2.79-1.271-4.147-1.98l-0.683-0.375
		c-3.516-1.877-6.886-4.036-10.069-6.434c-1.775-1.323-3.413-2.782-5.026-4.224c-1.911-1.698-3.729-3.499-5.453-5.385
		c-0.683-0.734-1.417-1.434-2.065-2.193c-2.381-2.799-4.557-5.777-6.502-8.9c-0.29-0.461-0.538-0.947-0.853-1.425
		c-1.818-3.029-3.413-6.187-4.779-9.446c-0.119-0.29-0.256-0.58-0.367-0.853c-1.51-3.729-2.731-7.578-3.635-11.503
		c0-0.154-0.119-0.273-0.162-0.427C179.823,365.97,179.2,360.312,179.2,354.629z M234.957,446.089l-30.643,36.54l-17.28-39.851
		c-1.067-2.466-3.234-4.284-5.845-4.907l-42.24-10.095l30.635-36.514c0.162,0.375,0.375,0.717,0.538,1.092
		c1.109,2.56,2.313,4.992,3.644,7.407c0.546,1.007,1.126,1.997,1.707,2.978c1.169,1.954,2.415,3.866,3.721,5.734
		c0.913,1.306,1.869,2.56,2.85,3.84c1.143,1.451,2.321,2.867,3.558,4.267s2.679,2.944,4.105,4.361
		c1.05,1.05,2.133,2.065,3.243,3.063c0.922,0.853,1.749,1.749,2.714,2.56c0.964,0.811,1.869,1.357,2.79,2.074
		c0.418,0.324,0.777,0.7,1.203,1.015c0.768,0.58,1.579,1.084,2.364,1.638c1.229,0.853,2.441,1.775,3.712,2.56
		c2.423,1.553,4.924,2.97,7.458,4.267c0.973,0.495,1.963,0.947,2.953,1.408c2.278,1.067,4.565,2.039,6.869,2.918
		c0.666,0.247,1.323,0.529,1.988,0.759c3.234,1.135,6.528,2.091,9.865,2.859L234.957,446.089z M342.417,391.237l30.635,36.514
		l-42.24,10.095c-2.611,0.623-4.779,2.441-5.845,4.907l-17.28,39.876l-30.643-36.514h0.077c3.354-0.768,6.656-1.724,9.899-2.867
		c0.64-0.222,1.254-0.486,1.894-0.717c2.381-0.905,4.727-1.894,7.031-2.995c0.939-0.435,1.877-0.853,2.799-1.331
		c2.56-1.331,5.12-2.773,7.578-4.352c1.186-0.751,2.321-1.596,3.473-2.406c0.853-0.589,1.707-1.126,2.56-1.749
		c0.452-0.341,0.853-0.742,1.297-1.092c0.853-0.7,1.843-1.289,2.714-2.022c0.87-0.734,1.758-1.707,2.662-2.509
		c1.126-1.024,2.236-2.057,3.311-3.123c1.408-1.408,2.765-2.85,4.079-4.335c1.237-1.399,2.415-2.816,3.567-4.267
		c0.981-1.254,1.937-2.56,2.85-3.84c1.314-1.86,2.56-3.772,3.712-5.717c0.597-0.99,1.178-1.988,1.707-3.004
		c1.323-2.406,2.534-4.864,3.627-7.381C342.033,391.971,342.255,391.621,342.417,391.237z M494.933,346.095H349.431
		c-4.634-51.61-50.219-89.685-101.828-85.052c-45.193,4.053-80.998,39.868-85.052,85.052H17.067V21.829h477.867V346.095z"/>
	<path style="fill:#231F20;" d="M51.2,55.962h25.6V38.895H42.667c-4.71,0-8.533,3.823-8.533,8.533v34.133H51.2V55.962z"/>
	<path style="fill:#231F20;" d="M460.8,81.562h17.067V47.429c0-4.71-3.823-8.533-8.533-8.533H435.2v17.067h25.6V81.562z"/>
	<path style="fill:#231F20;" d="M477.867,320.495v-34.133H460.8v25.6h-25.6v17.067h34.133
		C474.044,329.029,477.867,325.206,477.867,320.495z"/>
	<path style="fill:#231F20;" d="M42.667,329.029H76.8v-17.067H51.2v-25.6H34.133v34.133
		C34.133,325.206,37.956,329.029,42.667,329.029z"/>
	<rect x="153.6" y="98.629" style="fill:#231F20;" width="204.8" height="17.067"/>
	<rect x="102.4" y="149.829" style="fill:#231F20;" width="307.2" height="17.067"/>
	<path style="fill:#231F20;" d="M256,414.362c32.99,0,59.733-26.743,59.733-59.733S288.99,294.895,256,294.895
		s-59.733,26.743-59.733,59.733C196.301,387.602,223.027,414.328,256,414.362z M256,311.962c23.561,0,42.667,19.106,42.667,42.667
		S279.561,397.295,256,397.295s-42.667-19.106-42.667-42.667C213.359,331.077,232.448,311.988,256,311.962z"/>
</g>
<g>
</g>
<g>
</g>
<g>
</g>
<g>
</g>
<g>
</g>
<g>
</g>
<g>
</g>
<g>
</g>
<g>
</g>
<g>
</g>
<g>
</g>
<g>
</g>
<g>
</g>
<g>
</g>
<g>
</g>
</svg>
