<?xml version="1.0" encoding="iso-8859-1"?>
<!-- Generator: Adobe Illustrator 19.0.0, SVG Export Plug-In . SVG Version: 6.00 Build 0)  -->
<svg version="1.1" id="Capa_1" xmlns="http://www.w3.org/2000/svg" xmlns:xlink="http://www.w3.org/1999/xlink" x="0px" y="0px"
	 viewBox="0 0 512 512" style="enable-background:new 0 0 512 512;" xml:space="preserve">
<path style="fill:#1689FC;" d="M257,481C132.928,481,30,380.072,30,256S132.928,31,257,31s225,100.928,225,225S381.072,481,257,481z
	"/>
<path style="fill:#1DE8F1;" d="M257,31c-75.703,0-137,98.833-137,225s61.297,225,137,225s135-98.833,135-225S332.703,31,257,31z
	 M150,256c0-96.248,41.893-178.656,92-192.671v385.342C191.893,434.656,150,352.248,150,256z M272,448.671V63.329
	c50.107,14.015,90,96.423,90,192.671S322.107,434.656,272,448.671z"/>
<path style="fill:#136EF1;" d="M482,256c0-124.072-100.928-225-225-225v450C381.072,481,482,380.072,482,256z"/>
<path style="fill:#1BD9DE;" d="M392,256c0-126.167-59.297-225-135-225v450C332.703,481,392,382.167,392,256z M272,63.329
	c50.107,14.015,90,96.423,90,192.671s-39.893,178.656-90,192.671V63.329z"/>
<path style="fill:#E1E4FB;" d="M467,151H45c-24.901,0-45,20.099-45,45v120c0,24.899,20.099,45,45,45h422c24.901,0,45-20.101,45-45
	V196C512,171.099,491.901,151,467,151z"/>
<path style="fill:#C5C9F7;" d="M512,196v120c0,24.899-20.099,45-45,45H257V151h210C491.901,151,512,171.099,512,196z"/>
<path style="fill:#E50027;" d="M453.582,219.291L437,252.455l-16.582-33.164c-5.098-10.166-21.738-10.166-26.836,0L377,252.455
	l-16.582-33.164c-6.943-13.885-29.957-9.753-28.843,7.705c0.205,3.105,1.406,5.933,3.267,8.218l28.74,57.495
	c5.098,10.166,21.738,10.166,26.836,0L407,259.545l16.582,33.164c5.528,11.025,21.308,11.025,26.836,0l30-60
	C489.282,214.982,462.474,201.578,453.582,219.291z"/>
<g>
	<path style="fill:#FD003A;" d="M151.582,219.291L135,252.455l-16.582-33.164c-5.419-10.801-21.451-10.696-26.836,0L75,252.455
		l-16.582-33.164c-3.706-7.412-12.715-10.386-20.127-6.709c-7.412,3.706-10.415,12.715-6.709,20.127l30,60
		c5.528,11.025,21.308,11.025,26.836,0L105,259.545l16.582,33.164c5.528,11.025,21.308,11.025,26.836,0l28.257-56.514
		c2.139-2.432,3.516-5.64,3.75-9.199C181.454,210.865,158.813,204.908,151.582,219.291z"/>
	<path style="fill:#FD003A;" d="M330.5,232.599l-30,60c-5.7,11.1-21.301,11.1-27.001,0L257,259.6l-16.5,32.999
		c-5.099,10.201-23.901,10.201-29.001,0l-30-60C172.8,214.9,199.5,201.7,208.5,219.399L227,252.4l16.5-33.001
		c2.701-5.099,8.101-7.8,13.5-7.8c5.399,0,10.8,2.701,13.5,7.8L287,252.4l16.5-33.001C312.499,201.7,339.2,214.9,330.5,232.599z"/>
</g>
<path style="fill:#E50027;" d="M273.5,292.599L257,259.6v-48.001c5.4,0,10.8,2.701,13.5,7.8L287,252.4l16.5-33.001
	c9-17.699,35.7-4.499,27.001,13.2l-30,60C294.8,303.699,279.2,303.699,273.5,292.599z"/>
<g>
</g>
<g>
</g>
<g>
</g>
<g>
</g>
<g>
</g>
<g>
</g>
<g>
</g>
<g>
</g>
<g>
</g>
<g>
</g>
<g>
</g>
<g>
</g>
<g>
</g>
<g>
</g>
<g>
</g>
</svg>
