<svg enable-background="new 0 0 24 24" height="512" viewBox="0 0 24 24" width="512" xmlns="http://www.w3.org/2000/svg"><path d="m19 5c0-.552-.448-1-1-1s-1 .448-1 1v4h-6.5v-3c0-.552-.448-1-1-1s-1 .448-1 1v3h-6.5v-4.25c0-.552-.448-1-1-1s-1 .448-1 1v13.75c0 1.378 1.122 2.5 2.5 2.5h13.5c1.654 0 3-1.346 3-3zm-2 6v3h-6.5v-3zm-8.5 0v3h-6.5v-3zm-6.5 7.5v-2.5h6.5v3h-6c-.276 0-.5-.224-.5-.5zm14 .5h-5.5v-3h6.5v2c0 .551-.449 1-1 1z" fill="#cfd8dc"/><path d="m16.75 0h-14.5c-1.243 0-2.25 1.007-2.25 2.25v3.75h19v-3.75c0-1.243-1.007-2.25-2.25-2.25z" fill="#2196f3"/><path d="m2.5 19c-.276 0-.5-.224-.5-.5v-2.5h6.5v3zm-.5-5v-3h6.5v3zm-2-9.25v13.75c0 1.378 1.122 2.5 2.5 2.5h7.035v-15h-1.035v3h-6.5v-3h-2z" fill="#b0bec5"/><path d="m9.535 0h-7.285c-1.243 0-2.25 1.007-2.25 2.25v2.5 1.25h2 6.5 1.035z" fill="#1e88e5"/><path d="m24 11.8c0 .54-.21 1.04-.59 1.42l-2.47 2.47-4.24-4.24 2.47-2.48c.76-.75 2.07-.75 2.83 0l1.41 1.42c.38.38.59.88.59 1.41z" fill="#90caf9"/><path d="m20.94 15.69-7.07 7.07-.24.14-4.63 1.09-.11.01c-.13 0-.26-.05-.35-.15-.13-.12-.18-.3-.14-.46l1.09-4.63c.02-.09.07-.17.14-.24l7.07-7.07z" fill="#2196f3"/><path d="m20.585 8.408c-.518 0-1.035.188-1.415.563l-2.47 2.48 2.12 2.12 3.887-3.887-.707-.714c-.38-.375-.897-.562-1.415-.562z" fill="#7db0d9"/><path d="m16.7 11.45-7.07 7.07c-.07.07-.12.15-.14.24l-1.09 4.63c-.04.16.01.34.14.46l10.28-10.28z" fill="#1e88e5"/></svg>