<svg id="Layer_1" enable-background="new 0 0 512 512" height="512" viewBox="0 0 512 512" width="512" xmlns="http://www.w3.org/2000/svg"><g><g><g><g><g><g><g><g id="XMLID_1375_"><g id="XMLID_1376_"><g id="XMLID_1377_"><g id="XMLID_1378_"><g id="XMLID_1379_"><g id="XMLID_1380_"><g id="XMLID_1381_"><g id="XMLID_1382_"><g id="XMLID_2114_"><g id="XMLID_2217_"><g id="XMLID_2218_"><g id="XMLID_2219_"><g id="XMLID_2220_"><g id="XMLID_2221_"><g id="XMLID_2222_"><circle cx="256" cy="256" fill="#00c6cb" r="256"/></g></g></g></g></g></g></g></g></g></g></g></g></g></g></g></g></g></g></g></g></g><path d="m512 256c0-41.673-9.957-81.021-27.623-115.793l-51.237-51.237-354.282 334.063 61.339 61.339c34.775 17.669 74.126 27.628 115.803 27.628 141.385 0 256-114.615 256-256z" fill="#4793ff"/><g><path d="m433.142 423.033h-354.284v-281.739l177.142-9.683 177.142 9.683z" fill="#fff"/><path d="m433.14 141.29v281.74h-177.14v-291.42z" fill="#ecf9fb"/><path d="m78.858 88.967h354.283v52.327h-354.283z" fill="#00337a"/><path d="m256 88.97h177.14v52.32h-177.14z" fill="#05303d"/><path d="m78.858 88.967h52.327v52.327h-52.327z" fill="#ff6326"/></g><g><g><g><path d="m178.557 359.39h154.886v30h-154.886z" fill="#00429b"/></g></g></g><g><g><g><g><path d="m256 359.39h77.44v30h-77.44z" fill="#00337a"/></g></g></g></g><g><circle cx="256" cy="253" fill="#ffec29" r="73.131"/><path d="m329.13 253c0 40.39-32.74 73.13-73.13 73.13v-146.26c40.39 0 73.13 32.74 73.13 73.13z" fill="#ffcb00"/><g><g><g><path d="m259.954 295.419c-23.39 0-42.419-19.029-42.419-42.419s19.029-42.419 42.419-42.419c8.5 0 16.704 2.507 23.725 7.25l8.286 5.599-11.197 16.572-8.286-5.598c-3.701-2.501-8.033-3.823-12.527-3.823-12.362 0-22.419 10.057-22.419 22.419s10.057 22.419 22.419 22.419c4.483 0 8.232-1.314 11.143-3.905.567-.505 1.112-1.068 1.619-1.672l6.426-7.662 15.324 12.851-6.426 7.663c-1.127 1.343-2.352 2.607-3.642 3.756-6.591 5.868-15.043 8.969-24.445 8.969z" fill="#ff6326"/></g></g></g><g><g><g><g><path d="m294.47 275.03-6.43 7.66c-1.13 1.35-2.35 2.61-3.64 3.76-6.59 5.87-15.04 8.97-24.45 8.97-1.33 0-2.65-.06-3.95-.18v-20.18c1.28.24 2.6.36 3.95.36 4.49 0 8.24-1.31 11.15-3.91.56-.5 1.11-1.06 1.62-1.67l6.42-7.66z" fill="#e20059"/></g></g></g></g><path d="m259.95 230.58c-1.35 0-2.67.12-3.95.36v-20.18c1.3-.12 2.62-.18 3.95-.18 8.5 0 16.71 2.51 23.73 7.25l8.28 5.6-11.19 16.57-8.29-5.6c-3.7-2.5-8.03-3.82-12.53-3.82z" fill="#e20059"/></g></g></svg>