<svg enable-background="new 0 0 140 140" height="512" viewBox="0 0 140 140" width="512" xmlns="http://www.w3.org/2000/svg"><circle cx="70" cy="70" fill="#fb7833" r="64"/><path d="m56.2967529 26.3305283v11.7800293h-8.6900024c-1.960022 0-3.5599976 1.5900879-3.5599976 3.5500488v68.4499512c0 1.0200195.4299927 1.9399414 1.1300049 2.5900879l21.1942749 21.1905594c1.2017822.0672607 2.4103394.1087646 3.6289673.1087646 33.2130127 0 60.5117188-25.3009109 63.6865234-57.6795731l-49.9897461-49.9898681z" opacity=".1"/><path d="m92.3933792 38.107048h-44.7867584c-1.9646721 0-3.5573235 1.5926514-3.5573235 3.5572701v68.4438782c0 1.9646759 1.5926514 3.5573273 3.5573235 3.5573273h44.7867584c1.9646683 0 3.5573196-1.5926514 3.5573196-3.5573273v-68.4438782c.0000001-1.9646187-1.5926513-3.5572701-3.5573196-3.5572701z" fill="#344d5b"/><path d="m48.501713 48.651249h42.996578v20.456116h-42.996578z" fill="#ededed"/><path d="m86.2407913 44.1003532h-32.4815826c-.5319672 0-.9632111-.4312439-.9632111-.9632072v-.0000038c0-.5319672.4312439-.9632072.9632111-.9632072h32.4815826c.5319672 0 .9632111.4312401.9632111.9632072v.0000038c0 .5319633-.4312439.9632072-.9632111.9632072z" fill="#19282f"/><path d="m56.301014 26.33448h27.397974v16.83935h-27.397974z" fill="#ebf0f3"/><path d="m80.7826157 38.9974632c0 .359581-.2571106.6421394-.5843124.6421394h-20.3966027c-.3272057 0-.5843163-.2825584-.5843163-.6421394 0-.3510132.2571106-.6421394.5843163-.6421394h20.3966026c.3272019 0 .5843125.2911262.5843125.6421394z" fill="#e1e6e9"/><path d="m80.7826157 34.7507591c0 .3596344-.2571106.6421394-.5843124.6421394h-20.3966027c-.3272057 0-.5843163-.282505-.5843163-.6421394 0-.351017.2571106-.6421432.5843163-.6421432h20.3966026c.3272019 0 .5843125.2911262.5843125.6421432z" fill="#e1e6e9"/><path d="m80.7826157 30.5041046v.0085716c0 .3510132-.2571106.6335697-.5843124.6335697h-20.3966027c-.3272057 0-.5843163-.2825565-.5843163-.6335697v-.0085716c0-.3510647.2571106-.6421394.5843163-.6421394h20.3966026c.3272019 0 .5843125.2910747.5843125.6421394z" fill="#e1e6e9"/><path d="m56.412323 80.8742752v-3.570282c0-.9075546-.7277374-1.6439209-1.6353455-1.6439209h-4.1096878c-.9075546 0-1.6438637.7363663-1.6438637 1.6439209v3.570282c0 .9075546.7363091 1.6352921 1.6438637 1.6352921h4.1096878c.9076081 0 1.6353455-.7277375 1.6353455-1.6352921z" fill="#4abba4"/><g fill="#ebf0f3"><path d="m56.412323 101.3885269v-3.5703354c0-.9075546-.7277374-1.6438675-1.6353455-1.6438675h-4.1096878c-.9075546 0-1.6438637.7363129-1.6438637 1.6438675v3.5703354c0 .9075546.7363091 1.6352921 1.6438637 1.6352921h4.1096878c.9076081 0 1.6353455-.7277375 1.6353455-1.6352921z"/><path d="m67.936615 101.3885269v-3.5703354c0-.9075546-.7363586-1.6438675-1.6439209-1.6438675h-4.109684c-.9075546 0-1.6352921.7363129-1.6352921 1.6438675v3.5703354c0 .9075546.7277374 1.6352921 1.6352921 1.6352921h4.109684c.9075622 0 1.6439209-.7277375 1.6439209-1.6352921z"/><path d="m67.936615 91.1313782v-3.5702896c0-.9075546-.7363586-1.6438599-1.6439209-1.6438599h-4.109684c-.9075546 0-1.6352921.7363052-1.6352921 1.6438599v3.5702896c0 .9075546.7277374 1.6353455 1.6352921 1.6353455h4.109684c.9075622-.0000001 1.6439209-.7277909 1.6439209-1.6353455z"/></g><path d="m67.936615 80.8742752v-3.570282c0-.9075546-.7363586-1.6439209-1.6439209-1.6439209h-4.109684c-.9075546 0-1.6352921.7363663-1.6352921 1.6439209v3.570282c0 .9075546.7277374 1.6352921 1.6352921 1.6352921h4.109684c.9075622 0 1.6439209-.7277375 1.6439209-1.6352921z" fill="#e56353"/><g fill="#ebf0f3"><path d="m56.412323 91.1313782v-3.5702896c0-.9075546-.7277374-1.6438599-1.6353455-1.6438599h-4.1096878c-.9075546 0-1.6438637.7363052-1.6438637 1.6438599v3.5702896c0 .9075546.7363091 1.6353455 1.6438637 1.6353455h4.1096878c.9076081-.0000001 1.6353455-.7277909 1.6353455-1.6353455z"/><path d="m79.4522781 101.3885269v-3.5703354c0-.9075546-.7277374-1.6438675-1.6352921-1.6438675h-4.1096802c-.9075623 0-1.6439209.7363129-1.6439209 1.6438675v3.5703354c0 .9075546.7363586 1.6352921 1.6439209 1.6352921h4.1096802c.9075547 0 1.6352921-.7277375 1.6352921-1.6352921z"/><path d="m90.9765701 101.3885269v-3.5703354c0-.9075546-.7363052-1.6438675-1.6438599-1.6438675h-4.1096878c-.907608 0-1.6353455.7363129-1.6353455 1.6438675v3.5703354c0 .9075546.7277374 1.6352921 1.6353455 1.6352921h4.1096878c.9075547 0 1.6438599-.7277375 1.6438599-1.6352921z"/><path d="m90.9765701 91.1313782v-3.5702896c0-.9075546-.7363052-1.6438599-1.6438599-1.6438599h-4.1096878c-.907608 0-1.6353455.7363052-1.6353455 1.6438599v3.5702896c0 .9075546.7277374 1.6353455 1.6353455 1.6353455h4.1096878c.9075547-.0000001 1.6438599-.7277909 1.6438599-1.6353455z"/></g><path d="m90.9765701 80.8742752v-3.570282c0-.9075546-.7363052-1.6439209-1.6438599-1.6439209h-4.1096878c-.907608 0-1.6353455.7363663-1.6353455 1.6439209v3.570282c0 .9075546.7277374 1.6352921 1.6353455 1.6352921h4.1096878c.9075547 0 1.6438599-.7277375 1.6438599-1.6352921z" fill="#fcd462"/><path d="m79.4522781 91.1313782v-3.5702896c0-.9075546-.7277374-1.6438599-1.6352921-1.6438599h-4.1096802c-.9075623 0-1.6439209.7363052-1.6439209 1.6438599v3.5702896c0 .9075546.7363586 1.6353455 1.6439209 1.6353455h4.1096802c.9075547-.0000001 1.6352921-.7277909 1.6352921-1.6353455z" fill="#ebf0f3"/><path d="m79.4522781 80.8742752v-3.570282c0-.9075546-.7277374-1.6439209-1.6352921-1.6439209h-4.1096802c-.9075623 0-1.6439209.7363663-1.6439209 1.6439209v3.570282c0 .9075546.7363586 1.6352921 1.6439209 1.6352921h4.1096802c.9075547 0 1.6352921-.7277375 1.6352921-1.6352921z" fill="#d5d6db"/></svg>