<svg height="480pt" viewBox="0 0 480 480" width="480pt" xmlns="http://www.w3.org/2000/svg"><path d="m159.992188 464h160v16h-160zm0 0" fill="#f4b12a"/><path d="m375.992188 144c0-75.199219-60.796876-136-135.199219-136.800781-75.199219 0-136 60.800781-136.800781 135.199219 0 22.402343 5.601562 44.800781 16 64.800781l120 216 120-216c10.402343-19.199219 16-40.800781 16-63.199219zm0 0" fill="#e23333"/><path d="m335.992188 144c0 53.019531-42.980469 96-96 96-53.019532 0-96-42.980469-96-96s42.980468-96 96-96c53.019531 0 96 42.980469 96 96zm0 0" fill="#e9e9e9"/><g fill="#d6d7d8"><path d="m463.992188 184h-16v-32c0-4.800781-3.199219-8-8-8h-40v-16h40c13.601562 0 24 10.398438 24 24zm0 0"/><path d="m447.992188 376h-56c-13.597657 0-24-10.398438-24-24v-24c0-4.800781-3.199219-8-8-8h-24v-16h24c13.601562 0 24 10.398438 24 24v24c0 4.800781 3.203124 8 8 8h56zm0 0"/><path d="m447.992188 296h-16v-40c0-4.800781-3.199219-8-8-8h-40v-16h40c13.601562 0 24 10.398438 24 24zm0 0"/><path d="m423.992188 440h-120c-13.597657 0-24-10.398438-24-24v-16h16v16c0 4.800781 3.203124 8 8 8h120zm0 0"/></g><path d="m447.992188 432c0 8.835938-7.160157 16-16 16-8.835938 0-16-7.164062-16-16s7.164062-16 16-16c8.839843 0 16 7.164062 16 16zm0 0" fill="#b4b4b5"/><path d="m471.992188 368c0 8.835938-7.160157 16-16 16-8.835938 0-16-7.164062-16-16s7.164062-16 16-16c8.839843 0 16 7.164062 16 16zm0 0" fill="#b4b4b5"/><path d="m455.992188 304c0 8.835938-7.160157 16-16 16-8.835938 0-16-7.164062-16-16s7.164062-16 16-16c8.839843 0 16 7.164062 16 16zm0 0" fill="#b4b4b5"/><path d="m439.992188 104h-40v-16h40c4.800781 0 8-3.199219 8-8v-48h16v48c0 13.601562-10.398438 24-24 24zm0 0" fill="#d6d7d8"/><path d="m471.992188 24c0 8.835938-7.160157 16-16 16-8.835938 0-16-7.164062-16-16s7.164062-16 16-16c8.839843 0 16 7.164062 16 16zm0 0" fill="#b4b4b5"/><path d="m471.992188 192c0 8.835938-7.160157 16-16 16-8.835938 0-16-7.164062-16-16s7.164062-16 16-16c8.839843 0 16 7.164062 16 16zm0 0" fill="#b4b4b5"/><path d="m31.992188 176h-16v-32c0-13.601562 10.402343-24 24-24h40v16h-40c-4.796876 0-8 3.199219-8 8zm0 0" fill="#d6d7d8"/><path d="m87.992188 376h-56v-16h56c4.800781 0 8-3.199219 8-8v-24c0-13.601562 10.402343-24 24-24h24v16h-24c-4.796876 0-8 3.199219-8 8v24c0 13.601562-10.398438 24-24 24zm0 0" fill="#d6d7d8"/><path d="m47.992188 296h-16v-48c0-13.601562 10.402343-24 24-24h40v16h-40c-4.796876 0-8 3.199219-8 8zm0 0" fill="#d6d7d8"/><path d="m175.992188 440h-120v-16h120c4.800781 0 8-3.199219 8-8v-16h16v16c0 13.601562-10.398438 24-24 24zm0 0" fill="#d6d7d8"/><path d="m63.992188 432c0 8.835938-7.160157 16-16 16-8.835938 0-16-7.164062-16-16s7.164062-16 16-16c8.839843 0 16 7.164062 16 16zm0 0" fill="#b4b4b5"/><path d="m39.992188 368c0 8.835938-7.160157 16-16 16-8.835938 0-16-7.164062-16-16s7.164062-16 16-16c8.839843 0 16 7.164062 16 16zm0 0" fill="#b4b4b5"/><path d="m55.992188 304c0 8.835938-7.160157 16-16 16-8.835938 0-16-7.164062-16-16s7.164062-16 16-16c8.839843 0 16 7.164062 16 16zm0 0" fill="#b4b4b5"/><path d="m79.992188 104h-40c-13.597657 0-24-10.398438-24-24v-48h16v48c0 4.800781 3.203124 8 8 8h40zm0 0" fill="#d6d7d8"/><path d="m39.992188 24c0 8.835938-7.160157 16-16 16-8.835938 0-16-7.164062-16-16s7.164062-16 16-16c8.839843 0 16 7.164062 16 16zm0 0" fill="#b4b4b5"/><path d="m39.992188 184c0 8.835938-7.160157 16-16 16-8.835938 0-16-7.164062-16-16s7.164062-16 16-16c8.839843 0 16 7.164062 16 16zm0 0" fill="#b4b4b5"/><path d="m159.992188 464h160v16h-160zm0 0"/><path d="m383.992188 144c0-79.199219-64.796876-144-144-144-79.199219 0-144 64.800781-144 144 0 24 5.601562 47.199219 17.601562 68l126.398438 228.800781 127.203124-228.800781c11.199219-20.800781 16.796876-44 16.796876-68zm-144 263.199219-112.796876-203.199219c-9.601562-18.398438-15.203124-39.199219-15.203124-60 0-70.398438 57.601562-128 128-128 70.402343 0 128 57.601562 128 128 0 20.800781-5.597657 41.601562-15.199219 60zm0 0"/><path d="m239.992188 40c-57.597657 0-104 46.398438-104 104s46.402343 104 104 104c57.601562 0 104-46.398438 104-104s-46.398438-104-104-104zm0 192c-48.796876 0-88-39.199219-88-88s39.203124-88 88-88c48.800781 0 88 39.199219 88 88s-39.199219 88-88 88zm0 0"/><path d="m423.992188 232h-40v16h40c4.800781 0 8 3.199219 8 8v25.601562c-12.796876 4.796876-19.199219 18.398438-14.398438 30.398438 4.800781 12.800781 18.398438 19.199219 30.398438 14.398438 12.800781-4.796876 19.203124-18.398438 14.402343-30.398438-2.402343-7.199219-8-12-14.402343-14.398438v-25.601562c0-13.601562-10.398438-24-24-24zm16 80c-4.796876 0-8-3.199219-8-8s3.203124-8 8-8c4.800781 0 8 3.199219 8 8s-3.199219 8-8 8zm0 0"/><path d="m455.992188 432c0-13.601562-10.398438-24-24-24-10.398438 0-19.199219 6.398438-22.398438 16h-105.601562c-4.796876 0-8-3.199219-8-8v-16h-16v16c0 13.601562 10.402343 24 24 24h105.601562c4 12.800781 18.398438 19.199219 30.398438 14.398438 9.601562-3.199219 16-12 16-22.398438zm-24 8c-4.796876 0-8-3.199219-8-8s3.203124-8 8-8c4.800781 0 8 3.199219 8 8s-3.199219 8-8 8zm0 0"/><path d="m455.992188 344c-10.398438 0-19.199219 6.398438-22.398438 16h-41.601562c-4.796876 0-8-3.199219-8-8v-24c0-13.601562-10.398438-24-24-24h-24v16h24c4.800781 0 8 3.199219 8 8v24c0 13.601562 10.402343 24 24 24h41.601562c4.800781 12.800781 18.398438 19.199219 30.398438 14.398438 12.800781-4.796876 19.203124-18.398438 14.402343-30.398438-3.199219-9.601562-12-16-22.402343-16zm0 32c-4.796876 0-8-3.199219-8-8s3.203124-8 8-8c4.800781 0 8 3.199219 8 8s-3.199219 8-8 8zm0 0"/><path d="m455.992188 0c-13.597657 0-24 10.398438-24 24 0 10.398438 6.402343 19.199219 16 22.398438v33.601562c0 4.800781-3.199219 8-8 8h-40v16h40c13.601562 0 24-10.398438 24-24v-33.601562c12.800781-4 19.203124-18.398438 14.402343-30.398438-3.199219-9.601562-12-16-22.402343-16zm0 32c-4.796876 0-8-3.199219-8-8s3.203124-8 8-8c4.800781 0 8 3.199219 8 8s-3.199219 8-8 8zm0 0"/><path d="m463.992188 169.601562v-17.601562c0-13.601562-10.398438-24-24-24h-40v16h40c4.800781 0 8 3.199219 8 8v17.601562c-12.796876 4.796876-19.199219 18.398438-14.398438 30.398438 4.800781 12.800781 18.398438 19.199219 30.398438 14.398438 12-4.796876 19.203124-18.398438 14.402343-30.398438-2.402343-6.398438-7.199219-12-14.402343-14.398438zm-8 30.398438c-4.796876 0-8-3.199219-8-8s3.203124-8 8-8c4.800781 0 8 3.199219 8 8s-3.199219 8-8 8zm0 0"/><path d="m55.992188 240h40v-16h-40c-13.597657 0-24 10.398438-24 24v33.601562c-12.796876 4.796876-19.199219 18.398438-14.398438 30.398438 4.800781 12.800781 18.398438 19.199219 30.398438 14.398438 12.800781-4.796876 19.203124-18.398438 14.402343-30.398438-2.402343-7.199219-8-12-14.402343-14.398438v-33.601562c0-4.800781 3.203124-8 8-8zm-16 72c-4.796876 0-8-3.199219-8-8s3.203124-8 8-8c4.800781 0 8 3.199219 8 8s-3.199219 8-8 8zm0 0"/><path d="m183.992188 416c0 4.800781-3.199219 8-8 8h-105.597657c-4.800781-12.800781-18.402343-19.199219-30.402343-14.398438-12 4.796876-19.199219 17.597657-14.398438 30.398438s18.398438 19.199219 30.398438 14.398438c7.203124-2.398438 12-8 14.402343-14.398438h105.597657c13.601562 0 24-10.398438 24-24v-16h-16zm-136 24c-4.796876 0-8-3.199219-8-8s3.203124-8 8-8c4.800781 0 8 3.199219 8 8s-3.199219 8-8 8zm0 0"/><path d="m23.992188 392c10.402343 0 19.203124-6.398438 22.402343-16h41.597657c13.601562 0 24-10.398438 24-24v-24c0-4.800781 3.203124-8 8-8h24v-16h-24c-13.597657 0-24 10.398438-24 24v24c0 4.800781-3.199219 8-8 8h-41.597657c-4.800781-12.800781-18.402343-19.199219-30.402343-14.398438-12.796876 4.796876-19.199219 18.398438-14.398438 30.398438 3.199219 9.601562 12 16 22.398438 16zm0-32c4.800781 0 8 3.199219 8 8s-3.199219 8-8 8c-4.796876 0-8-3.199219-8-8s3.203124-8 8-8zm0 0"/><path d="m15.992188 46.398438v33.601562c0 13.601562 10.402343 24 24 24h40v-16h-40c-4.796876 0-8-3.199219-8-8v-33.601562c12.800781-4 19.203124-18.398438 14.402343-30.398438s-17.601562-19.199219-30.402343-14.398438c-12.796876 4.796876-19.199219 17.597657-14.398438 30.398438 2.398438 6.398438 7.199219 12 14.398438 14.398438zm8-30.398438c4.800781 0 8 3.199219 8 8s-3.199219 8-8 8c-4.796876 0-8-3.199219-8-8s3.203124-8 8-8zm0 0"/><path d="m23.992188 208c13.601562 0 24-10.398438 24-24 0-10.398438-6.398438-19.199219-16-22.398438v-17.601562c0-4.800781 3.203124-8 8-8h40v-16h-40c-13.597657 0-24 10.398438-24 24v17.601562c-12.796876 4-19.199219 18.398438-14.398438 30.398438 3.199219 9.601562 12 16 22.398438 16zm0-32c4.800781 0 8 3.199219 8 8s-3.199219 8-8 8c-4.796876 0-8-3.199219-8-8s3.203124-8 8-8zm0 0"/></svg>