<svg id="Capa_1" enable-background="new 0 0 512 512" height="512" viewBox="0 0 512 512" width="512" xmlns="http://www.w3.org/2000/svg"><g><g><g><g><g><g><path d="m15.002 512c-3.916.001-7.75-1.534-10.608-4.394-4.018-4.018-5.42-9.96-3.624-15.35l35.241-105.724c-23.581-39.624-36.011-84.598-36.011-130.532 0-68.381 26.629-132.668 74.981-181.02s112.639-74.98 181.019-74.98 132.667 26.629 181.02 74.98c48.351 48.352 74.98 112.639 74.98 181.02 0 68.38-26.629 132.667-74.98 181.02-48.353 48.351-112.64 74.98-181.02 74.98-45.933 0-90.907-12.43-130.533-36.011l-105.724 35.242c-1.553.517-3.154.769-4.741.769z" fill="#bcfbff"/></g></g></g></g></g><g><path d="m256 0v512c68.38 0 132.667-26.629 181.02-74.98 48.351-48.353 74.98-112.64 74.98-181.02 0-68.381-26.629-132.668-74.98-181.02-48.353-48.351-112.64-74.98-181.02-74.98z" fill="#00e4ef"/></g><path d="m406.442 211.422c-.041-.156-.085-.312-.132-.466-12.167-40.313-39.389-73.323-76.651-92.948-37.255-19.62-79.888-23.387-120.045-10.604-38.05 12.112-69.706 38.225-89.137 73.529-19.437 35.313-24.548 76.027-14.394 114.64 8.797 33.445 27.789 62.298 54.924 83.438 26.128 20.355 58.671 32.067 91.635 32.979.142.004.282.006.423.006 8.092 0 14.762-6.445 14.986-14.585.229-8.281-6.298-15.181-14.579-15.409-55.536-1.536-104.213-40.215-118.375-94.061-17.056-64.852 19.674-131.598 83.616-151.952 32.438-10.326 66.876-7.285 96.966 8.562 30.024 15.813 51.979 42.385 61.84 74.839 6.272 23.69 4.23 45.663-6.811 73.422-3.109 7.82-12.763 26.01-35.178 26.01-3.418 0-6.892-1.599-9.78-4.502-3.867-3.887-6.159-9.604-6.131-15.292l.612-123.684c.041-8.284-6.642-15.033-14.926-15.074-.025 0-.05 0-.076 0-8.248 0-14.957 6.667-14.998 14.926l-.044 8.902c-11.057-8.807-24.645-13.798-39.798-13.798-19.336 0-38.316 8.738-52.075 23.974-14.138 15.655-21.924 37.044-21.924 60.228 0 23.196 7.356 44.929 20.716 61.193 13.573 16.527 32.448 26.006 51.784 26.006 17.608 0 33.521-7.539 45.803-20.188 2.456 5.161 5.749 9.907 9.789 13.968 8.562 8.604 19.587 13.342 31.047 13.342 33.318 0 54.418-23.206 63.054-44.923 13.469-33.86 15.893-62.38 7.859-92.478zm-157.551 100.278c-23.435 0-42.5-25.659-42.5-57.199 0-33.928 22.371-54.201 43.999-54.201 22.663 0 38.659 20.999 39.463 51.364l-.028 5.606c-1.186 30.294-19.09 54.43-40.934 54.43z" fill="#0a617d"/><g fill="#08475e"><path d="m406.442 211.422c-.041-.156-.085-.312-.132-.466-12.167-40.313-39.389-73.323-76.651-92.948-23.109-12.17-48.286-18.234-73.659-18.039v30.014c20.557-.189 40.959 4.71 59.679 14.569 30.024 15.813 51.979 42.385 61.84 74.839 6.272 23.69 4.23 45.663-6.811 73.422-3.109 7.82-12.763 26.01-35.178 26.01-3.418 0-6.892-1.599-9.78-4.502-3.867-3.887-6.159-9.604-6.131-15.292l.612-123.684c.041-8.284-6.642-15.033-14.926-15.074-.025 0-.05 0-.076 0-8.248 0-14.957 6.667-14.998 14.926l-.044 8.902c-9.675-7.706-21.286-12.49-34.188-13.566v30.226c19.651 3.182 33.117 23.115 33.853 50.906l-.028 5.606c-1.054 26.93-15.324 48.978-33.825 53.546v30.456c14.773-1.738 28.089-8.837 38.694-19.759 2.456 5.161 5.749 9.907 9.789 13.968 8.562 8.604 19.587 13.342 31.047 13.342 33.318 0 54.418-23.206 63.054-44.923 13.469-33.861 15.893-62.381 7.859-92.479z"/><path d="m268.051 397.412c.206-7.416-5.013-13.707-12.051-15.109v29.404c6.712-1.336 11.854-7.165 12.051-14.295z"/></g></g></svg>