<svg id="Layer_1" enable-background="new 0 0 512 512" height="512" viewBox="0 0 512 512" width="512" xmlns="http://www.w3.org/2000/svg"><g><g clip-rule="evenodd" fill-rule="evenodd"><path d="m274.766 127.164h164.014c12.444 0 22.621 10.177 22.621 22.621v332.112c0 12.444-10.177 22.621-22.621 22.621h-228.928c-12.445 0-22.621-10.176-22.621-22.621v-267.17z" fill="#fff9df"/><path d="m409.668 127.164h29.112c12.444 0 22.621 10.177 22.621 22.621v332.112c0 12.444-10.177 22.621-22.621 22.621h-29.112c12.445 0 22.621-10.176 22.621-22.621v-332.113c0-12.444-10.176-22.62-22.621-22.62z" fill="#fff3bf"/><path d="m252.145 214.727c12.444 0 22.621-10.176 22.621-22.621 0-21.656 0-43.286 0-64.942l-87.535 87.563z" fill="#ffe07d"/><path d="m130.679 127.164h-63.129c-9.326 0-16.952 7.654-16.952 16.98v343.393c0 9.327 7.625 16.98 16.952 16.98h63.128c9.326 0 16.951-7.653 16.951-16.98v-343.393c.001-9.327-7.624-16.98-16.95-16.98z" fill="#90d8f9"/><path d="m130.679 127.164h-63.129c-9.326 0-16.952 7.654-16.952 16.98v69.223h97.031v-69.223c.001-9.327-7.624-16.98-16.95-16.98z" fill="#365e7d"/><path d="m239.644 335.399h98.874c3.203 0 5.811 2.636 5.811 5.839v98.845c0 3.203-2.608 5.84-5.811 5.84h-98.874c-3.204 0-5.812-2.637-5.812-5.84v-98.845c0-3.202 2.608-5.839 5.812-5.839z" fill="#fc7070"/><path d="m309.377 335.399h29.141c3.203 0 5.811 2.636 5.811 5.839v98.845c0 3.203-2.608 5.84-5.811 5.84h-29.141c3.204 0 5.84-2.637 5.84-5.84v-98.845c0-3.202-2.636-5.839-5.84-5.839z" fill="#d15a63"/><path d="m310.114 264.929h98.874c3.203 0 5.811 2.636 5.811 5.839v98.846c0 3.203-2.608 5.839-5.811 5.839h-98.874c-3.204 0-5.812-2.636-5.812-5.839v-98.846c.001-3.203 2.609-5.839 5.812-5.839z" fill="#b3e59f"/><path d="m379.847 264.929h29.141c3.203 0 5.811 2.636 5.811 5.839v98.846c0 3.203-2.608 5.839-5.811 5.839h-29.141c3.204 0 5.84-2.636 5.84-5.839v-98.846c0-3.203-2.636-5.839-5.84-5.839z" fill="#95d6a4"/><path d="m67.55 87.591h376.9c9.326 0 16.952-7.654 16.952-16.979v-46.149c0-9.327-7.625-16.952-16.952-16.952h-376.9c-9.326 0-16.952 7.625-16.952 16.952v46.148c.001 9.327 7.626 16.98 16.952 16.98z" fill="#90d8f9"/><path d="m67.55 87.591h90.001v-80.079h-90.001c-9.326 0-16.952 7.625-16.952 16.952v46.148c.001 9.326 7.626 16.979 16.952 16.979z" fill="#365e7d"/></g><path d="m307.336 497.005c4.139 0 7.484 3.373 7.484 7.512s-3.345 7.483-7.484 7.483h-97.484c-8.306 0-15.818-3.373-21.289-8.844-5.443-5.442-8.844-12.983-8.844-21.26v-267.169c0-2.098.85-3.997 2.239-5.357l87.507-87.507c1.474-1.446 3.401-2.183 5.301-2.183h164.014c8.306 0 15.817 3.373 21.289 8.844 5.442 5.442 8.844 12.982 8.844 21.26v332.112c0 8.277-3.401 15.818-8.844 21.26-5.472 5.471-12.983 8.844-21.289 8.844h-97.485c-4.139 0-7.483-3.345-7.483-7.483s3.345-7.512 7.483-7.512h97.485c4.167 0 7.937-1.701 10.687-4.451 2.721-2.75 4.45-6.52 4.45-10.658v-332.112c0-4.139-1.729-7.908-4.45-10.658-2.75-2.75-6.52-4.45-10.687-4.45h-156.502v57.43c0 8.277-3.402 15.818-8.844 21.26-5.471 5.471-12.983 8.844-21.289 8.844h-57.431v259.686c0 4.139 1.73 7.908 4.451 10.658 2.75 2.75 6.52 4.451 10.687 4.451zm-188.62-401.93c-4.139 0-7.512-3.345-7.512-7.484s3.373-7.512 7.512-7.512h31.323v-65.084h-82.489c-2.58 0-4.961 1.077-6.661 2.806-1.729 1.701-2.807 4.083-2.807 6.662v46.148c0 2.608 1.077 4.961 2.807 6.69 1.701 1.728 4.082 2.777 6.661 2.777h17.178c4.139 0 7.513 3.373 7.513 7.512s-3.374 7.484-7.513 7.484h-17.178c-6.718 0-12.841-2.75-17.292-7.172-4.422-4.422-7.172-10.545-7.172-17.291v-46.148c0-6.719 2.75-12.841 7.172-17.292 4.451-4.422 10.574-7.171 17.292-7.171h376.9c6.718 0 12.841 2.749 17.263 7.171 4.451 4.451 7.2 10.573 7.2 17.292v46.148c0 6.747-2.75 12.869-7.2 17.291-4.422 4.422-10.545 7.172-17.263 7.172h-325.734zm46.319-14.996h279.415c2.58 0 4.961-1.049 6.661-2.777 1.729-1.729 2.807-4.082 2.807-6.69v-15.562h-288.883zm288.882-40.025v-15.59c0-2.58-1.077-4.961-2.807-6.662-1.701-1.729-4.081-2.806-6.661-2.806h-279.414v25.059h288.882zm-46.602 297.131c0-4.139 3.345-7.512 7.483-7.512 4.139 0 7.512 3.373 7.512 7.512v38.268c0 4.139-3.374 7.484-7.512 7.484h-62.958v62.987c0 4.139-3.373 7.483-7.512 7.483h-110.496c-4.139 0-7.512-3.345-7.512-7.483v-38.268c0-4.139 3.373-7.512 7.512-7.512s7.484 3.374 7.484 7.512v30.756h95.529v-55.475h-32.543c-4.138 0-7.512-3.345-7.512-7.484v-32.542h-55.475v30.756c0 4.139-3.345 7.512-7.484 7.512s-7.512-3.373-7.512-7.512v-38.268c0-4.139 3.373-7.483 7.512-7.483h62.959v-62.987c0-4.139 3.374-7.483 7.512-7.483h110.496c4.139 0 7.512 3.345 7.512 7.483v38.268c0 4.139-3.374 7.512-7.512 7.512-4.139 0-7.483-3.374-7.483-7.512v-30.756h-95.528v95.501h95.528zm-323.862-157.268c-4.139 0-7.512-3.345-7.512-7.512 0-4.139 3.373-7.483 7.512-7.483h31.323c4.139 0 7.512 3.345 7.512 7.483 0 4.167-3.374 7.512-7.512 7.512zm23.159 40.961v33.506h33.534v-33.506zm33.534 48.501h-33.534v33.535h33.534zm0 48.531h-33.534v33.534h33.534zm0 48.53h-33.534v33.534h33.534zm0 48.529h-33.534v33.506h33.534zm0 48.53h-33.534v33.506h24.066c2.58 0 4.961-1.049 6.662-2.778 1.729-1.73 2.806-4.083 2.806-6.691zm-48.529 33.506v-33.506h-33.535v24.038c0 2.608 1.077 4.961 2.807 6.691 1.701 1.729 4.082 2.778 6.661 2.778h24.067zm-33.535-48.53h33.535v-33.506h-33.535zm0-48.501h33.535v-33.534h-33.535zm0-48.53h33.535v-33.534h-33.535zm0-48.53h33.535v-33.535h-33.535zm0-48.53h33.535v-33.506h-33.535zm0-48.529h82.064v-61.711c0-2.608-1.077-4.961-2.806-6.69-1.701-1.701-4.082-2.778-6.662-2.778h-63.128c-2.58 0-4.961 1.077-6.661 2.778-1.729 1.729-2.807 4.082-2.807 6.69zm9.468-86.175h63.128c6.718 0 12.841 2.749 17.291 7.171 4.422 4.423 7.172 10.545 7.172 17.292v343.393c0 6.747-2.75 12.87-7.172 17.292-4.45 4.422-10.573 7.171-17.291 7.171h-63.128c-6.718 0-12.841-2.749-17.292-7.171-4.422-4.422-7.172-10.545-7.172-17.292 0-114.464 0-228.929 0-343.393 0-6.747 2.75-12.869 7.172-17.292 4.451-4.422 10.574-7.171 17.292-7.171zm199.732 25.597-61.937 61.938h46.801c4.167 0 7.937-1.701 10.686-4.451 2.75-2.75 4.45-6.52 4.45-10.659z"/></g></svg>